<svg width="114" height="116" viewBox="0 0 114 116" fill="none" xmlns="http://www.w3.org/2000/svg">
<path d="M56.64 115.868C48.1067 115.868 40.3733 114.268 33.44 111.068C26.6133 107.762 20.6933 103.388 15.68 97.9482C10.7733 92.4015 6.98667 86.2149 4.32 79.3882C1.65333 72.4549 0.32 65.3082 0.32 57.9482C0.32 50.3749 1.70667 43.1749 4.48 36.3482C7.36 29.5215 11.3067 23.4415 16.32 18.1082C21.44 12.6682 27.4667 8.40153 34.4 5.30819C41.3333 2.21486 48.9067 0.668196 57.12 0.668196C65.5467 0.668196 73.1733 2.32153 80 5.6282C86.9333 8.8282 92.8533 13.2015 97.76 18.7482C102.773 24.2949 106.613 30.5349 109.28 37.4682C111.947 44.2949 113.28 51.2815 113.28 58.4282C113.28 66.0015 111.893 73.2015 109.12 80.0282C106.347 86.8549 102.4 92.9882 97.28 98.4282C92.16 103.762 86.1333 108.028 79.2 111.228C72.3733 114.322 64.8533 115.868 56.64 115.868ZM27.04 58.2682C27.04 62.6415 27.68 66.9082 28.96 71.0682C30.24 75.1215 32.1067 78.7482 34.56 81.9482C37.12 85.1482 40.2667 87.7082 44 89.6282C47.7333 91.5482 52 92.5082 56.8 92.5082C61.8133 92.5082 66.1867 91.5482 69.92 89.6282C73.6533 87.6015 76.7467 84.9349 79.2 81.6282C81.6533 78.3215 83.4667 74.6415 84.64 70.5882C85.92 66.4282 86.56 62.2149 86.56 57.9482C86.56 53.5749 85.92 49.3615 84.64 45.3082C83.36 41.2549 81.44 37.6282 78.88 34.4282C76.32 31.1215 73.1733 28.5615 69.44 26.7482C65.7067 24.9349 61.4933 24.0282 56.8 24.0282C51.7867 24.0282 47.4133 24.9882 43.68 26.9082C40.0533 28.8282 36.96 31.4415 34.4 34.7482C31.9467 37.9482 30.08 41.6282 28.8 45.7882C27.6267 49.8415 27.04 54.0015 27.04 58.2682Z" fill="#FF9619"/>
</svg>
